<svg xmlns="http://www.w3.org/2000/svg" width="124" height="124" viewBox="0 0 124 124">
    <g fill="none" fill-rule="evenodd">
        <path d="M0-3h124v124H0z"/>
        <path fill="#000" fill-opacity=".3" fill-rule="nonzero" d="M23.734 25.626a36.008 36.008 0 0 1 2.1-1.765c3.101-2.394 5.557-3.474 8.573-2.208 2.262.904 3.758 2.81 4.142 5.135.249 1.506.028 2.958-.49 4.483-.587 1.722-1.346 3.122-2.763 5.435-.268.45-2.35 3.507-2.773 4.141A126.063 126.063 0 0 0 28 48.117c-2.039 3.558-3.697 6.943-4.874 10.075-1.252 3.33-1.903 6.234-1.903 8.558 0 5.09 1.791 9.066 4.915 11.39 2.593 1.937 6.063 2.539 9.257 1.58 1.522-.44 3.162-1.48 5.091-3.27 2.093-1.943 3.816-3.943 8.23-9.39 4.738-5.835 7.619-9.145 10.908-12.255 4.987-4.716 9.445-7.367 14.053-7.367 8.516 0 12.56 4.154 13.703 11.114.087.531.123.792.26 1.834.034.263.057.436.081.602l.68 4.817-4.796.812C75.818 67.935 69.68 71.543 65.394 76.7c-3.479 4.186-5.42 9.138-5.42 12.73 0 5.987 5.167 10.966 11.584 10.966 3.566 0 7.61-1.662 10.945-5.033 4.452-4.5 7.45-11.702 8.304-21.902l.385-4.582H103.5v-2.917H91.172l-.413-4.547c-.91-10.005-6.173-17.153-15.842-17.153-7.597 0-15.791 5.666-21.609 12.784-2.83 3.563-10.278 12.399-11.997 14.255l-.22.265a65.02 65.02 0 0 1-.373.444c-.315.371-.606.704-.905 1.029-2.47 2.686-4.806 4.29-7.986 4.29-3.938 0-6.503-2.932-7.373-6.732-.654-2.855-.384-6.279.752-9.717C26.9 55.605 31.771 46.72 35.398 41.4c4.78-6.985 5.844-9.358 5.844-14.123 0-6.42-3.924-9.777-7.969-9.777-2.047 0-4.308.743-6.586 2.067-1.65.96-3.132 2.127-3.931 2.927-.407.406-.771.772-1.1 1.102l2.078 2.03zm47.98 72.216c-4.496 0-8.824-3.625-8.824-8.72 0-7.294 7.316-16.154 18.563-19.097l7.041-1.843-.806 7.234c-1.567 14.05-7.962 22.426-15.975 22.426z"/>
    </g>
</svg>
