<svg xmlns="http://www.w3.org/2000/svg" xmlns:xlink="http://www.w3.org/1999/xlink" width="375" height="170" viewBox="0 0 375 170">
    <defs>
        <path id="a" d="M2.63 144A119.474 119.474 0 0 1 0 119C0 53.278 53.278 0 119 0c65.722 0 119 53.278 119 119 0 8.575-.907 16.939-2.63 25H2.63z"/>
    </defs>
    <g fill="none" fill-rule="evenodd">
        <g transform="translate(23 12)">
            <g transform="translate(46)">
                <mask id="b" fill="#fff">
                    <use xlink:href="#a"/>
                </mask>
                <use fill="#F7BD19" fill-opacity=".9" fill-rule="nonzero" xlink:href="#a"/>
                <path fill="#D29500" d="M119 0h119v139H119z" mask="url(#b)" opacity=".8"/>
            </g>
            <circle cx="261" cy="11" r="6" fill="#D99E09"/>
            <circle cx="27" cy="112" r="6" fill="#F7BD19"/>
            <circle cx="268" cy="28" r="3" fill="#D99E09"/>
            <circle cx="33" cy="98" r="3" fill="#F7BD19"/>
            <circle cx="3" cy="127" r="3" fill="#F7BD19"/>
            <rect width="244" height="5" x="43" y="139" fill="#383B3C" fill-rule="nonzero" rx="2.5"/>
        </g>
        <path fill="#FFF" fill-rule="nonzero" d="M114.5 167.91v-47H106v-5.55l19.527-17.567H146V88.61l-7-2.12-3.917-5.376L188.257 37l53.414 44.75-5.034 4.738-6.7.896v10.41H250l20.514 17.565-1.4 5.55H261.5v47.001h-147zm73-57.91c10.217 0 18.5-8.283 18.5-18.5S197.717 73 187.5 73 169 81.283 169 91.5s8.283 18.5 18.5 18.5z"/>
        <path fill="#F7C32F" fill-rule="nonzero" d="M174 143h14v24h-14z"/>
        <path fill="#D99E09" fill-rule="nonzero" d="M188 143h14v24h-14z"/>
        <path fill="#FFF" fill-rule="nonzero" d="M188 3h32v20h-32z"/>
        <g fill="#383B3C" transform="translate(103)">
            <path fill-rule="nonzero" d="M85 68.548c-12.095 0-21.935 9.841-21.935 21.936s9.84 21.935 21.935 21.935c12.095 0 21.935-9.84 21.935-21.935 0-12.095-9.84-21.936-21.935-21.936zm2.742 38.14v-.494a2 2 0 0 0-2-2h-1.484a2 2 0 0 0-2 2v.495c-6.874-1.16-12.3-6.59-13.463-13.463h.495a2 2 0 0 0 2-2v-1.484a2 2 0 0 0-2-2h-.495c1.16-6.874 6.589-12.3 13.463-13.463v.495a2 2 0 0 0 2 2h1.484a2 2 0 0 0 2-2v-.495c6.874 1.16 12.3 6.589 13.463 13.463h-.495a2 2 0 0 0-2 2v1.484a2 2 0 0 0 2 2h.495c-1.163 6.874-6.589 12.3-13.463 13.463z"/>
            <path fill-rule="nonzero" d="M167.73 111.956l-18.651-15.988h-20.208v-5.756c.65.16 1.313.272 1.99.272h.634c4.601 0 8.344-3.743 8.344-8.344a8.317 8.317 0 0 0-3.003-6.41L91.603 38.039c-1.127-.943-2.46-1.56-3.861-1.928V24.677h32.903V0H82.258v36.109c-1.401.367-2.736.984-3.863 1.927L33.166 75.73a8.311 8.311 0 0 0-3.005 6.41c0 4.601 3.743 8.344 8.344 8.344h.633c.678 0 1.341-.11 1.991-.272v5.756H20.921L2.268 111.956A6.5 6.5 0 0 0 0 116.889a6.505 6.505 0 0 0 6.498 6.498h1.728V170h153.548v-46.613h1.728A6.505 6.505 0 0 0 170 116.89a6.493 6.493 0 0 0-2.27-4.933zM87.742 5.484h27.42v13.71h-27.42V5.484zM39.138 85h-.633a2.863 2.863 0 0 1-2.86-2.86c0-.853.376-1.653 1.031-2.196l45.231-37.696c1.73-1.44 4.453-1.443 6.183.002l45.237 37.694a2.85 2.85 0 0 1 1.028 2.196 2.863 2.863 0 0 1-2.86 2.86h-.633a2.87 2.87 0 0 1-1.805-.639L85 48.565 40.94 84.364a2.87 2.87 0 0 1-1.802.636zM13.71 164.516v-41.129h21.935v-5.484H6.498a1.016 1.016 0 0 1-.66-1.785l17.112-14.666h18.179v63.064h-27.42zm60.322 0v-19.193h8.226v19.193h-8.226zm13.71 0v-19.193h8.226v19.193h-8.226zm13.71 0V141.84a2 2 0 0 0-2-2H70.548a2 2 0 0 0-2 2v22.677H46.613V86.821L85 55.628l38.387 31.195v77.693h-21.935zm62.05-46.613h-29.147v5.484h21.935v41.13h-27.419v-63.065h18.179l17.11 14.666c.227.195.356.475.356.77 0 .56-.455 1.015-1.014 1.015z"/>
            <rect width="5.484" height="5.484" x="134.355" y="128.871" rx="2.742"/>
            <rect width="5.484" height="5.484" x="145.323" y="128.871" rx="2.742"/>
            <rect width="16.484" height="5.484" x="98.71" y="123.387" rx="2.742"/>
            <path d="M57.58 123.387h11a2.742 2.742 0 0 1 0 5.484h-11a2.742 2.742 0 1 1 0-5.484z"/>
            <rect width="5.484" height="5.484" x="134.355" y="139.839" rx="2.742"/>
            <rect width="5.484" height="5.484" x="145.323" y="139.839" rx="2.742"/>
            <rect width="5.484" height="5.484" x="30.161" y="128.871" rx="2.742"/>
            <rect width="5.484" height="5.484" x="19.194" y="128.871" rx="2.742"/>
            <rect width="5.484" height="5.484" x="30.161" y="139.839" rx="2.742"/>
            <rect width="5.484" height="5.484" x="19.194" y="139.839" rx="2.742"/>
            <path d="M85.742 82.258h-2.484a1 1 0 0 0-1 1v8.968a1 1 0 0 0 1 1h8.968a1 1 0 0 0 1-1v-2.484a1 1 0 0 0-1-1h-4.484a1 1 0 0 1-1-1v-4.484a1 1 0 0 0-1-1z"/>
        </g>
    </g>
</svg>
