<svg xmlns="http://www.w3.org/2000/svg" xmlns:xlink="http://www.w3.org/1999/xlink" width="375" height="170" viewBox="0 0 375 170">
    <defs>
        <path id="a" d="M2.63 144A119.474 119.474 0 0 1 0 119C0 53.278 53.278 0 119 0c65.722 0 119 53.278 119 119 0 8.575-.907 16.939-2.63 25H2.63z"/>
    </defs>
    <g fill="none" fill-rule="evenodd">
        <g transform="translate(23 12)">
            <g transform="translate(46)">
                <mask id="b" fill="#fff">
                    <use xlink:href="#a"/>
                </mask>
                <use fill="#F7BD19" fill-opacity=".9" fill-rule="nonzero" xlink:href="#a"/>
                <path fill="#D29500" d="M119 0h119v139H119z" mask="url(#b)" opacity=".8"/>
            </g>
            <circle cx="261" cy="11" r="6" fill="#D99E09"/>
            <circle cx="27" cy="112" r="6" fill="#F7BD19"/>
            <circle cx="268" cy="28" r="3" fill="#D99E09"/>
            <circle cx="33" cy="98" r="3" fill="#F7BD19"/>
            <circle cx="3" cy="127" r="3" fill="#F7BD19"/>
            <rect width="244" height="5" x="43" y="139" fill="#383B3C" fill-rule="nonzero" rx="2.5"/>
        </g>
        <path d="M91-7h194v194H91z"/>
        <path fill="#FFF" stroke="#383B3C" stroke-width="5" d="M123 122.167c0 7.113 3.153 13.499 8.083 17.945V154.5c0 4.446 3.638 8.083 8.084 8.083h8.083c4.446 0 8.083-3.637 8.083-8.083v-8.083H220v8.083c0 4.446 3.637 8.083 8.083 8.083h8.084c4.446 0 8.083-3.637 8.083-8.083v-14.388c4.93-4.446 8.083-10.832 8.083-17.945V41.333C252.333 13.042 223.395 9 187.667 9 151.938 9 123 13.042 123 41.333v80.834zm28.292 8.083a12.109 12.109 0 0 1-12.125-12.125c0-6.71 5.416-12.125 12.125-12.125s12.125 5.416 12.125 12.125c0 6.71-5.416 12.125-12.125 12.125zm72.75 0a12.109 12.109 0 0 1-12.125-12.125c0-6.71 5.416-12.125 12.125-12.125s12.125 5.416 12.125 12.125c0 6.71-5.416 12.125-12.125 12.125zm12.125-48.5h-97V41.333h97V81.75z"/>
        <g fill="#383B3C" fill-rule="nonzero">
            <path d="M194 136a2.5 2.5 0 1 1 0-5h8a2.5 2.5 0 1 1 0 5h-8zM174 136a2.5 2.5 0 0 1 0-5h8a2.5 2.5 0 0 1 0 5h-8z"/>
        </g>
        <path fill="#383B3C" fill-rule="nonzero" d="M178.601 27.77a2.5 2.5 0 0 1-3.202-3.84c8.002-6.673 16.424-6.673 24.426 0a2.5 2.5 0 1 1-3.203 3.84c-6.147-5.127-11.874-5.127-18.02 0z"/>
    </g>
</svg>
