<svg xmlns="http://www.w3.org/2000/svg" xmlns:xlink="http://www.w3.org/1999/xlink" width="375" height="170" viewBox="0 0 375 170">
    <defs>
        <path id="a" d="M2.63 144A119.474 119.474 0 0 1 0 119C0 53.278 53.278 0 119 0c65.722 0 119 53.278 119 119 0 8.575-.907 16.939-2.63 25H2.63z"/>
    </defs>
    <g fill="none" fill-rule="evenodd" transform="translate(23 9)">
        <g transform="translate(46 3)">
            <mask id="b" fill="#fff">
                <use xlink:href="#a"/>
            </mask>
            <use fill="#F7BD19" fill-opacity=".9" fill-rule="nonzero" xlink:href="#a"/>
            <path fill="#D29500" d="M119 0h119v139H119z" mask="url(#b)" opacity=".8"/>
        </g>
        <rect width="244" height="5" x="43" y="142" fill="#383B3C" fill-rule="nonzero" rx="2.5"/>
        <circle cx="261" cy="14" r="6" fill="#D99E09"/>
        <circle cx="27" cy="115" r="6" fill="#F7BD19"/>
        <circle cx="268" cy="31" r="3" fill="#D99E09"/>
        <circle cx="33" cy="101" r="3" fill="#F7BD19"/>
        <circle cx="3" cy="130" r="3" fill="#F7BD19"/>
        <g fill-rule="nonzero">
            <path fill="#383B3C" d="M131.74 44.834c-12.352 0-22.366-10.014-22.366-22.366S119.388.102 131.74.102s22.366 10.014 22.366 22.366-10.014 22.366-22.366 22.366z"/>
            <path fill="#FFF" d="M131.74 39.834c9.591 0 17.366-7.775 17.366-17.366S141.331 5.102 131.74 5.102s-17.366 7.775-17.366 17.366 7.775 17.366 17.366 17.366z"/>
            <path fill="#383B3C" d="M198.26 44.834c-12.352 0-22.366-10.014-22.366-22.366S185.908.102 198.26.102s22.366 10.014 22.366 22.366-10.014 22.366-22.366 22.366z"/>
            <path fill="#FFF" d="M198.26 39.834c9.591 0 17.366-7.775 17.366-17.366S207.851 5.102 198.26 5.102s-17.366 7.775-17.366 17.366 7.775 17.366 17.366 17.366z"/>
            <path fill="#383B3C" d="M220.626 103.842c0 2.409-.826 4.694-2.289 6.536l5.144 34.665c.765 5.156-2.819 9.99-7.974 10.754-5.156.765-9.99-2.819-10.754-7.974l-4.963-33.437h-3.056l-4.963 33.438c-.767 5.155-5.598 8.737-10.755 7.973-5.155-.767-8.737-5.598-7.973-10.754l5.144-34.662a10.475 10.475 0 0 1-2.293-6.537V65.198L165 54.303l-14.504 14.5 10.641 36.316c1.653 5.638-2.498 11.284-8.33 11.434l4.148 27.946c.765 5.156-2.819 9.99-7.974 10.754-5.156.765-9.99-2.819-10.754-7.974l-4.56-30.723h-3.859l-4.56 30.724c-.766 5.155-5.597 8.737-10.754 7.973-5.155-.767-8.737-5.598-7.973-10.754l4.147-27.946c-5.831-.15-9.982-5.796-8.33-11.434l10.642-36.315-21.332-21.332c-3.686-3.687-3.686-9.701 0-13.388 3.687-3.686 9.701-3.686 13.388 0l17.158 17.159a8.745 8.745 0 0 1 2.75-.445h13.592c.942 0 1.867.153 2.75.445l15.722-15.722c.349-.53.728-1.004 1.162-1.438a9.373 9.373 0 0 1 6.78-2.749c2.565-.05 5.045.913 6.882 2.75.434.434.814.91 1.162 1.438l17.792 17.792h14.948l19.23-19.23c3.687-3.686 9.701-3.686 13.388 0 3.686 3.687 3.686 9.701 0 13.388l-17.726 17.726v38.644z"/>
            <path fill="#FFF" d="M215.626 103.842V63.126l19.19-19.19c1.734-1.733 1.734-4.583 0-6.316-1.733-1.734-4.583-1.734-6.316 0l-20.694 20.694h-19.092l-19.652-19.653-.153-.246c-.2-.323-.4-.582-.613-.795-.859-.86-2.021-1.31-3.345-1.286a4.439 4.439 0 0 0-3.247 1.286c-.211.21-.411.47-.616.8l-.151.243-18.716 18.715-1.674-1.005a3.893 3.893 0 0 0-2.011-.575h-13.592c-.697 0-1.383.198-2.011.575l-1.674 1.005L101.5 37.62c-1.733-1.734-4.583-1.734-6.316 0-1.734 1.733-1.734 4.583 0 6.316l23.428 23.428-.417 1.423-11.058 37.738c-.737 2.514 1.15 5.031 3.769 5.031h5.558l-.425 2.867-4.572 30.81c-.36 2.424 1.338 4.713 3.762 5.074 2.424.36 4.713-1.338 5.074-3.762l5.193-34.989h12.484l.317 2.133 4.876 32.856c.36 2.424 2.65 4.122 5.074 3.762 2.424-.36 4.122-2.65 3.762-5.074l-4.997-33.677h5.558c2.62 0 4.506-2.517 3.769-5.031l-11.475-39.16L165 47.232l15.894 15.893v40.718a5.51 5.51 0 0 0 1.684 3.953l.914.892-.187 1.264-5.316 35.824c-.36 2.424 1.338 4.713 3.762 5.074 2.424.36 4.713-1.338 5.074-3.762l5.597-37.703h11.68l.317 2.133 5.28 35.57c.36 2.424 2.65 4.122 5.074 3.762 2.424-.36 4.122-2.65 3.762-5.074l-5.503-37.085.91-.892a5.527 5.527 0 0 0 1.684-3.958z"/>
        </g>
    </g>
</svg>
